<svg id="Layer_1" data-name="Layer 1" xmlns="http://www.w3.org/2000/svg" xmlns:xlink="http://www.w3.org/1999/xlink" viewBox="0 0 810.45 789.03"><defs><style>.cls-1{fill:url(#linear-gradient);}.cls-2{fill:#fff;}</style><linearGradient id="linear-gradient" x1="501.92" y1="73.2" x2="520.4" y2="987.76" gradientUnits="userSpaceOnUse"><stop offset="0" stop-color="#ff7a85"/><stop offset="1" stop-color="#ff0700"/></linearGradient></defs><title>date</title><path class="cls-1" d="M876.71,237.89H741.63V171.52a54,54,0,1,0-108.07,0v66.37H390.44V171.52a54,54,0,1,0-108.06,0v66.37H147.29a40.51,40.51,0,0,0-40.51,40.52V866a40.51,40.51,0,0,0,40.51,40.53H876.71A40.51,40.51,0,0,0,917.22,866V278.41A40.5,40.5,0,0,0,876.71,237.89Z" transform="translate(-106.78 -117.48)"/><rect class="cls-2" x="249.88" y="301.65" width="128.33" height="108.06"/><rect class="cls-2" x="432.25" y="301.65" width="128.31" height="108.06"/><rect class="cls-2" x="81.05" y="301.65" width="114.81" height="108.06"/><rect class="cls-2" x="81.05" y="463.74" width="114.81" height="81.05"/><rect class="cls-2" x="249.88" y="463.74" width="128.33" height="81.05"/><rect class="cls-2" x="249.88" y="598.82" width="128.33" height="109.17"/><rect class="cls-2" x="432.25" y="598.82" width="128.31" height="109.17"/><rect class="cls-2" x="432.25" y="463.74" width="128.31" height="81.05"/><rect class="cls-2" x="614.59" y="463.74" width="114.82" height="81.05"/><rect class="cls-2" x="614.59" y="301.65" width="114.82" height="108.06"/><rect class="cls-2" x="81.05" y="598.82" width="114.81" height="109.17"/><rect class="cls-2" x="614.59" y="598.82" width="114.82" height="109.17"/></svg>