<svg id="Layer_1" data-name="Layer 1" xmlns="http://www.w3.org/2000/svg" xmlns:xlink="http://www.w3.org/1999/xlink" viewBox="0 0 810.45 895.07"><defs><style>.cls-1{fill:url(#linear-gradient);}.cls-2{fill:url(#linear-gradient-2);}.cls-3{fill:url(#linear-gradient-3);}.cls-4{fill:url(#linear-gradient-4);}.cls-5{fill:url(#linear-gradient-5);}.cls-6{fill:url(#linear-gradient-6);}</style><linearGradient id="linear-gradient" x1="679.64" y1="338.76" x2="862.65" y2="338.76" gradientUnits="userSpaceOnUse"><stop offset="0" stop-color="#a5e30c"/><stop offset="1" stop-color="#299401"/></linearGradient><linearGradient id="linear-gradient-2" x1="161.42" y1="338.76" x2="344.41" y2="338.76" xlink:href="#linear-gradient"/><linearGradient id="linear-gradient-3" x1="376.65" y1="199.76" x2="647.22" y2="199.76" xlink:href="#linear-gradient"/><linearGradient id="linear-gradient-4" x1="729.73" y1="670.31" x2="917.22" y2="670.31" xlink:href="#linear-gradient"/><linearGradient id="linear-gradient-5" x1="106.78" y1="670.31" x2="294.05" y2="670.31" xlink:href="#linear-gradient"/><linearGradient id="linear-gradient-6" x1="299.81" y1="665.28" x2="724" y2="665.28" xlink:href="#linear-gradient"/></defs><title>team</title><path class="cls-1" d="M771.07,247.32a91.44,91.44,0,0,0,0,182.88c50.51,0,91.58-41,91.58-91.34A91.74,91.74,0,0,0,771.07,247.32Z" transform="translate(-106.78 -64.47)"/><path class="cls-2" d="M253,247.32a91.59,91.59,0,0,0-91.57,91.54c0,50.35,41.07,91.34,91.57,91.34a91.44,91.44,0,0,0,0-182.88Z" transform="translate(-106.78 -64.47)"/><path class="cls-3" d="M511.92,64.47c-74.54,0-135.27,60.67-135.27,135.24s60.66,135.35,135.27,135.35,135.3-60.74,135.3-135.35S586.54,64.47,511.92,64.47Z" transform="translate(-106.78 -64.47)"/><path class="cls-4" d="M917.22,875.06H757.48V583.14c0-40.14-10.53-77.47-27.75-110.95,13.1-3.87,26.84-6.62,41.19-6.62,80.59,0,146.3,65.51,146.3,146.22Z" transform="translate(-106.78 -64.47)"/><path class="cls-5" d="M266.32,583.14V875.06H106.78V611.79c0-80.64,65.58-146.22,146.28-146.22,14.37,0,28,2.75,41,6.62C276.92,505.67,266.32,543,266.32,583.14Z" transform="translate(-106.78 -64.47)"/><path class="cls-6" d="M299.81,959.53H724V583.14C724,466.19,628.78,371,511.92,371c-117,0-212.11,95.17-212.11,212.12Z" transform="translate(-106.78 -64.47)"/></svg>