<svg id="Layer_1" data-name="Layer 1" xmlns="http://www.w3.org/2000/svg" xmlns:xlink="http://www.w3.org/1999/xlink" viewBox="0 0 544.58 871.3"><defs><style>.cls-1{fill:url(#linear-gradient);}.cls-2{fill:#fff;}.cls-3{fill:url(#linear-gradient-2);}</style><linearGradient id="linear-gradient" x1="239.71" y1="512" x2="784.29" y2="512" gradientUnits="userSpaceOnUse"><stop offset="0" stop-color="#1fb7f8"/><stop offset="1" stop-color="#1174e8"/></linearGradient><linearGradient id="linear-gradient-2" x1="406.49" y1="348.63" x2="617.53" y2="348.63" xlink:href="#linear-gradient"/></defs><title>venue</title><path class="cls-1" d="M512,76.35c-150.36,0-272.28,121.91-272.28,272.28,0,272.28,272.28,599,272.28,599s272.3-326.74,272.3-599C784.29,198.26,662.39,76.35,512,76.35Z" transform="translate(-239.71 -76.35)"/><path class="cls-2" d="M512,515.4A166.77,166.77,0,1,1,678.76,348.63,166.77,166.77,0,0,1,512,515.4Z" transform="translate(-239.71 -76.35)"/><path class="cls-3" d="M406.49,348.63A105.52,105.52,0,1,0,512,243.12,105.51,105.51,0,0,0,406.49,348.63Z" transform="translate(-239.71 -76.35)"/></svg>